<svg xmlns="http://www.w3.org/2000/svg" style="display: none;">
    <symbol id="icon-settings" width="24" height="24" viewBox="0 0 24 24" fill="none"
        stroke="currentColor" stroke-width="2" stroke-linecap="round"
        stroke-linejoin="round" class="lucide lucide-settings-icon lucide-settings">
        <path
            d="M12.22 2h-.44a2 2 0 0 0-2 2v.18a2 2 0 0 1-1 1.73l-.43.25a2 2 0 0 1-2 0l-.15-.08a2 2 0 0 0-2.73.73l-.22.38a2 2 0 0 0 .73 2.73l.15.1a2 2 0 0 1 1 1.72v.51a2 2 0 0 1-1 1.74l-.15.09a2 2 0 0 0-.73 2.73l.22.38a2 2 0 0 0 2.73.73l.15-.08a2 2 0 0 1 2 0l.43.25a2 2 0 0 1 1 1.73V20a2 2 0 0 0 2 2h.44a2 2 0 0 0 2-2v-.18a2 2 0 0 1 1-1.73l.43-.25a2 2 0 0 1 2 0l.15.08a2 2 0 0 0 2.73-.73l.22-.39a2 2 0 0 0-.73-2.73l-.15-.08a2 2 0 0 1-1-1.74v-.5a2 2 0 0 1 1-1.74l.15-.09a2 2 0 0 0 .73-2.73l-.22-.38a2 2 0 0 0-2.73-.73l-.15.08a2 2 0 0 1-2 0l-.43-.25a2 2 0 0 1-1-1.73V4a2 2 0 0 0-2-2z" />
        <circle cx="12" cy="12" r="3" />
    </symbol>
    <symbol id="icon-back-arrow" width="24" height="24" viewBox="0 0 24 24"
        fill="none" stroke="currentColor" stroke-width="2" stroke-linecap="round"
        stroke-linejoin="round" class="lucide lucide-arrow-left-icon lucide-arrow-left">
        <path d="m12 19-7-7 7-7" />
        <path d="M19 12H5" />
    </symbol>
    <symbol id="icon-external-link" width="24" height="24" viewBox="0 0 24 24"
        fill="none" stroke="currentColor" stroke-width="2" stroke-linecap="round"
        stroke-linejoin="round" class="lucide lucide-external-link">
        <path d="M15 3h6v6" />
        <path d="M10 14 21 3" />
        <path d="M18 13v6a2 2 0 0 1-2 2H5a2 2 0 0 1-2-2V8a2 2 0 0 1 2-2h6" />
    </symbol>
    <symbol id="icon-save" width="24" height="24" viewBox="0 0 24 24"
        fill="none" stroke="currentColor" stroke-width="2" stroke-linecap="round"
        stroke-linejoin="round" class="lucide lucide-save">
        <path
            d="M15.2 3a2 2 0 0 1 1.4.6l3.8 3.8a2 2 0 0 1 .6 1.4V19a2 2 0 0 1-2 2H5a2 2 0 0 1-2-2V5a2 2 0 0 1 2-2z" />
        <path d="M17 21v-7a1 1 0 0 0-1-1H8a1 1 0 0 0-1 1v7" />
        <path d="M7 3v4a1 1 0 0 0 1 1h8" />
    </symbol>
    <symbol id="icon-check-circle" width="24" height="24" viewBox="0 0 24 24"
        fill="none" stroke="currentColor" stroke-width="2" stroke-linecap="round"
        stroke-linejoin="round" class="lucide lucide-check-circle">
        <path d="M22 11.08V12a10 10 0 1 1-5.93-9.14" />
        <path d="m9 11 3 3L22 4" />
    </symbol>
    <symbol id="icon-spinner" width="24" height="24" viewBox="0 0 24 24" fill="currentColor">
        <path d="M12 2a10 10 0 1 0 0 20 10 10 0 0 0 0-20zm0 18a8 8 0 1 1 0-16 8 8 0 0 1 0 16z"
            opacity=".25"></path>
        <path d="M12 2a10 10 0 0 1 10 10h-2a8 8 0 0 0-8-8V2z"></path>
    </symbol>
</svg>